@startuml
'https://plantuml.com/class-diagram

class MainActivity {
    #onCreate(savedInstanceState: Bundle)
}

class ProfileActivity {
    -TextView firstName
    -TextView lastName
    -TextView contact
    -ImageView profPic
    -UserController userController
    #onCreate(savedInstanceState: Bundle)
}

class UserController {
    -User user
    -String defaultUUID
    -String prefName
    +User getUser()
    +void setUser(user: User)
    +String getUserID(context: Context)
    +void saveUUID(context: Context, id: String)
    +void putUserToFirestore()
    +void getUserFromFirestore(id: String)
    +void selectImage(activity: Activity)
    +void selectImage(fragment: Fragment)
    +void editProfile(firstName: String, lastName: String,
    contact: String, pictureUri: Uri)
    +void uploadProfilePicture(picture: Uri)
    +void updateWithProfPictureFromWeb()
}

class DatabaseController {
    -FirebaseFirestore db
    -FirebaseStorage storage
    +void putUserToFirestore(user: User)
    +void getUserFromFirestoreToUserController(id: String, userController: UserController)
    +void getUserFromFirestore(id: String, callback: UserCallback)
    +void uploadProfilePicture(picture: Uri, user: User, userController: UserController)
    +void updateWithProfPictureFromWeb(user: User, userController: UserController)
    +void getUserProfilePicture(userID: String, callback: ImageUriCallback)
    +void getAllEventsFromFirestore(callback: GetAllEventsCallback)
}

class Event {
    -String id
    -String name
    -int capacity
    -Collection<User> signedUpUsers
    -Collection<User> checkedInUsers
    -Object eventPoster
    -Object location
    -Date date
    +String getId()
    +void setId(id: String)
    +String getName()
    +void setName(name: String)
    +int getCapacity()
    +void setCapacity(capacity: int)
    +boolean isCapped()
    +boolean isFull()
    +void checkInUser(user: User)
    +Collection<User> getCheckedInUsers()
    +boolean isUserCheckedIn(user: User)
    +void signUpUser(user: User)
    +Collection<User> getSignedUpUsers()
    +boolean isUserSignedUp(user: User)
}

class User {
    -String profilePicPath
    -String id
    -String firstName
    -String lastName
    -String contact
    -Collection<Event> attendingEvents
    -Collection<Event> hostingEvents
    -Uri picture
    -String imgUrl
    +String getId()
    +void setId(id: String)
    +String getFirstName()
    +void setFirstName(firstName: String)
    +String getLastName()
    +void setLastName(lastName: String)
    +Collection<Event> getAttendingEvents()
    +Collection<Event> getHostingEvents()
    +String getContact()
    +void setContact(contact: String)
    +void checkIn(event: Event)
    +void signUp(event: Event)
    +Uri getPicture()
    +void setPicture(picture: Uri)
    +String getImgUrl()
    +void setImgUrl(imgUrl: String)
}

class Admin

class EditProfileFragment {
    -OnProfileUpdateListener profileUpdateListener
    -EditText firstName
    -EditText lastName
    -EditText contact
    -ImageView profPic
    -UserController userController
    +setOnProfileUpdateListener(listener: OnProfileUpdateListener)
}

class ToolbarFragment
class Fragment
interface OnProfileUpdateListener {
    +onProfileUpdate(newFirstName: String, newLastName: String, newContact: String, newPicture: Uri)
}

class EventArrayAdapter {
    -ArrayList<Event> events
    -Context context
    +void getView(position: int, convertView: View, parent: ViewGroup
}

interface GetAllEventsCallback {
    +onGetAllEventsCallback(event: Event)
}

class HomeFragment {
    -DatabaseController dbController
    -ArrayList<Event> events
    -ListView eventsList
    -EventArrayAdapter eventsArrayAdapter
}

class MyEventsFragment {
    -UserController userController
    -DatabaseController dbController
    -EventArrayAdapter myEventsArrayAdapter
    -ArrayList<Event> myEventsArrayList
    -MyEventsView myEventsView
    EventDetailsFragment frag
    -Collection<String> checkedInUsers
    -ArrayList<String> signedUpEvents
    +void onGetAllEventsCallback(newEventsArrayList: ArrayList<Event>)
    +void addNewEventsToArrayLists(newEventsArrayList: ArrayList<Event>)
    +void onGetCheckedInUsersCallback(event: Event, users: ArrayList<?>)
    +void purgeOldEventsFromArrayLists(newEventsArrayList: ArrayList<Event>)
    +void onItemClick(event: Event, position: int)
}

class MyEventsView {
    -View rootView
    -RecyclerView myEventsListView
    +void setMyEventsListArrayAdapter(adapter: EventArrayAdapter)
    +View getRootView()

}

class MapFragment {
    -Button backButton
    -TextView eventTitle
    -DatabaseController dbController
    -ArrayList<Location> locations
    -Event event
    -GoogleMap map
    -addMarkersToMap()
    -getAvgLatLng(): LatLng
}

class CheckedInUsersFragment {
    -DatabaseController dbController
    -UserArrayAdapter userAdapter
    -TextView checkedInCount
    -ListView checkedInList
    -Button backButton
    -Button mapButton
    -ArrayList<User> checkedInUsers
    -Event event
}

class SignedUpUsersFragment {
    -DatabaseController dbController
    -UserArrayAdapter userAdapter
    -TextView signedUpCount
    -ListView signedUpList
    -Button backButton
    -ArrayList<User> signedUpUsers
    -Event event
}

interface GetCheckInLocationCallback {
    +onGetCheckInLocationCallback()
}

interface GetSignedUpUsersCallback {
    +onGetSignedUpUsersCallback(event: Event, users: ArrayList<>)
}

interface GetCheckedInUsersCallback {
    +onGetCheckedInUsersCallback(event: Event, users: ArrayList<>)
}

class MessagingService {
    +void sendNotification()
    +void onMessageReceived()
}
class FirebaseMessagingService


Fragment <|-- ToolbarFragment
Fragment <|-- EditProfileFragment
Fragment <|-- HomeFragment : extends

FirebaseMessagingService <|-- MessagingService : extends

AppCompatActivity <|-- MainActivity : extends
AppCompatActivity <|-- ProfileActivity : extends
AppCompatActivity <|-- MapActivity : extends

ProfileActivity <|.. OnProfileUpdateListener : implements
GetAllEventsCallback <|.. HomeFragment : implements
GetCheckInLocationCallback <|.. MapFragment : implements
GetEventCallback <|.. MapFragment : implements
GetCheckedInUsersCallback <|.. CheckedInUsersFragment : implements
GetSignedUpUsersCallback <|.. SignedUpUsersFragment : implements

UserController "1" o-- "1" ProfileActivity : has
UserController "1" o-- "1" User : has
HomeFragment "0..1" o-- "1" EventArrayAdapter : has

DatabaseController -- User : takes as argument
DatabaseController -- UserController : takes as argument

EditProfileFragment o-- UserController

Event "*" o-- "*" User

User <|-- Admin : extends

skinparam linetype ortho
@enduml
